<?xml version="1.0" encoding="UTF-8"?>
<svg version="1.1" xmlns="http://www.w3.org/2000/svg" width="282" height="246">
<path d="M0 0 C93.06 0 186.12 0 282 0 C282 81.18 282 162.36 282 246 C188.94 246 95.88 246 0 246 C0 164.82 0 83.64 0 0 Z " fill="#FDFDFD" transform="translate(0,0)"/>
<path d="M0 0 C0.33 0 0.66 0 1 0 C1 4.29 1 8.58 1 13 C8.68677897 12.95577052 16.37274261 12.88585241 24.05908203 12.79248047 C26.67197163 12.76431526 29.28494573 12.74307871 31.89794922 12.72900391 C35.66157146 12.70751387 39.42418248 12.66082857 43.1875 12.609375 C44.93015137 12.60753204 44.93015137 12.60753204 46.70800781 12.60565186 C53.58652031 12.48240764 58.10925871 11.61248451 64 8 C62.70647765 11.45549805 61.20070037 14.5007834 59.2421875 17.625 C58.70279541 18.49060547 58.16340332 19.35621094 57.60766602 20.24804688 C57.03588623 21.15619141 56.46410645 22.06433594 55.875 23 C54.69354455 24.88512478 53.51255411 26.77054107 52.33203125 28.65625 C51.7592041 29.57019531 51.18637695 30.48414063 50.59619141 31.42578125 C49.22724383 33.63351806 47.88911935 35.85359106 46.57421875 38.09375 C41.91289493 45.9863216 38.4249022 51.13230737 29.5234375 54.38476562 C24.27412858 55.66458939 18.86762555 55.30252055 13.5 55.1875 C11.69402344 55.16719727 11.69402344 55.16719727 9.8515625 55.14648438 C6.90084675 55.11135681 3.95036345 55.05755767 1 55 C1 59.29 1 63.58 1 68 C-3.42503005 63.87872897 -6.83050287 59.30487493 -10.3125 54.375 C-11.45499282 52.76380052 -12.59822106 51.15312228 -13.7421875 49.54296875 C-14.29487305 48.7648584 -14.84755859 47.98674805 -15.41699219 47.18505859 C-16.80388668 45.27069929 -18.22687651 43.40279728 -19.6953125 41.55078125 C-20.43523437 40.60589844 -21.17515625 39.66101563 -21.9375 38.6875 C-22.58589844 37.88699219 -23.23429688 37.08648437 -23.90234375 36.26171875 C-25 34 -25 34 -24.6015625 31.7109375 C-22.27566053 27.77392294 -19.39975357 24.41033978 -16.4375 20.9375 C-11.26043276 14.77711642 -6.30199282 8.53786442 -1.57421875 2.02734375 C-1.05472656 1.35832031 -0.53523438 0.68929687 0 0 Z " fill="#272727" transform="translate(171,151)"/>
<path d="M0 0 C2.85626247 5.52461294 5.30117854 11.06071275 7.5 16.875 C8.10351497 18.45727997 8.70767751 20.03931311 9.3125 21.62109375 C9.59996094 22.37374512 9.88742188 23.12639648 10.18359375 23.90185547 C11.52689636 27.35411103 12.98438243 30.75864853 14.46875 34.15234375 C15 36 15 36 14 39 C13.45730469 38.6390625 12.91460937 38.278125 12.35546875 37.90625 C11.64003906 37.4421875 10.92460938 36.978125 10.1875 36.5 C9.47980469 36.0359375 8.77210937 35.571875 8.04296875 35.09375 C5.94541876 33.76400625 5.94541876 33.76400625 3 34 C1.20898432 36.57132096 -0.37540883 39.10533897 -1.9375 41.8125 C-2.91239366 43.4593224 -3.8890177 45.10512143 -4.8671875 46.75 C-5.37604492 47.60980469 -5.88490234 48.46960938 -6.40917969 49.35546875 C-9.53152805 54.5459656 -12.82871667 59.62825768 -16.11499023 64.71606445 C-19.61677749 70.19817278 -22.097622 74.72027502 -22.625 81.3125 C-22.69976562 82.19550781 -22.77453125 83.07851562 -22.8515625 83.98828125 C-22.90054688 84.65214844 -22.94953125 85.31601563 -23 86 C-25.71065335 83.58076073 -27.23066233 81.00764021 -28.92578125 77.80859375 C-29.47556641 76.78056641 -30.02535156 75.75253906 -30.59179688 74.69335938 C-31.15962891 73.61892578 -31.72746094 72.54449219 -32.3125 71.4375 C-38.1206175 59.00330406 -38.1206175 59.00330406 -46 48 C-47.47982759 36.96685504 -43.59356633 29.53722379 -37.75 20.49609375 C-37.37681641 19.9127124 -37.00363281 19.32933105 -36.61914062 18.72827148 C-35.5489025 17.07551936 -34.44700458 15.44339808 -33.34375 13.8125 C-31.70219764 11.15462464 -31.70219764 11.15462464 -32.5859375 8.76171875 C-34.63880787 6.20413715 -37.24574379 4.73637892 -40 3 C-40 2.67 -40 2.34 -40 2 C-33.52258101 1.08345677 -27.09676998 0.69716806 -20.5625 0.4375 C-19.08426758 0.37272461 -19.08426758 0.37272461 -17.57617188 0.30664062 C-11.71175518 0.06180414 -5.86936681 -0.04248766 0 0 Z " fill="#252525" transform="translate(98,103)"/>
<path d="M0 0 C6.51010748 -0.15308235 13.01974506 -0.25760239 19.53125 -0.32958984 C21.74268946 -0.35962253 23.9540112 -0.40046197 26.16503906 -0.45263672 C29.35771845 -0.52604819 32.54881331 -0.55959247 35.7421875 -0.5859375 C36.71864227 -0.61690521 37.69509705 -0.64787292 38.70114136 -0.67977905 C46.09958519 -0.6833451 51.18360432 1.41698681 57 6 C58.96548055 8.19936018 60.44689162 10.42490694 61.875 13 C62.58036771 14.18771474 63.28609389 15.37521667 63.9921875 16.5625 C64.65476562 17.696875 65.31734375 18.83125 66 20 C66.74576704 21.10879601 67.49806601 22.21323555 68.2578125 23.3125 C70 26 70 26 70 28 C74.66091941 26.34102868 78.84148523 24.72902532 83 22 C81.65564136 26.30025511 80.00731521 30.26931968 78.03125 34.31640625 C77.46019531 35.49267578 76.88914062 36.66894531 76.30078125 37.88085938 C75.70076609 39.10819285 75.10050346 40.33540537 74.5 41.5625 C73.32067258 43.97938929 72.14428677 46.39766636 70.96875 48.81640625 C70.18661133 50.41657593 70.18661133 50.41657593 69.38867188 52.04907227 C68.1554441 54.66968129 67.04110037 57.29831957 66 60 C62.9375 59.70833333 59.875 59.41666667 56.8125 59.125 C55.41414917 58.99182373 55.41414917 58.99182373 53.98754883 58.85595703 C47.99584961 58.28531901 42.00415039 57.71468099 36.01245117 57.14404297 C34.61410034 57.0108667 34.61410034 57.0108667 33.1875 56.875 C32.26880127 56.78750488 31.35010254 56.70000977 30.40356445 56.60986328 C29.56269287 56.52978027 28.72182129 56.44969727 27.85546875 56.3671875 C25.94701172 56.18542969 25.94701172 56.18542969 24 56 C27.05550298 52.85407523 30.1538699 51.10448628 34 49 C29.77062953 41.06777045 25.30744734 33.28983567 20.66870117 25.59179688 C19.92854249 24.35945146 19.19288834 23.12438984 18.46166992 21.88671875 C13.32807514 13.19927267 8.21067795 6.03906561 0 0 Z " fill="#252626" transform="translate(127,42)"/>
<path d="M0 0 C0.8647998 0.02557983 1.72959961 0.05115967 2.62060547 0.07751465 C3.42256348 0.08255005 4.22452148 0.08758545 5.05078125 0.09277344 C8.03796286 0.1188753 11.02463366 0.18868312 14.01123047 0.2532959 C20.69373047 0.3564209 27.37623047 0.4595459 34.26123047 0.5657959 C34.26123047 14.4257959 34.26123047 28.2857959 34.26123047 42.5657959 C25.56779297 42.6586084 25.56779297 42.6586084 16.69873047 42.7532959 C14.88300537 42.78060791 13.06728027 42.80791992 11.1965332 42.83605957 C9.73763695 42.84483144 8.27873328 42.85247372 6.81982422 42.85876465 C5.70758484 42.8817865 5.70758484 42.8817865 4.57287598 42.90527344 C-1.28260443 42.90818131 -6.04631506 41.82134092 -10.66455078 37.95251465 C-15.17555427 32.42494699 -17.33877109 27.35753936 -17.19189453 20.1361084 C-16.25547599 14.82435495 -13.5189549 10.13142141 -10.73876953 5.5657959 C-10.23667969 4.69318115 -9.73458984 3.82056641 -9.21728516 2.92150879 C-6.03089635 -0.10700437 -4.26285241 -0.0030962 0 0 Z " fill="#242424" transform="translate(96.73876953125,163.4342041015625)"/>
<path d="M0 0 C4.88471997 4.32595127 7.86508221 9.39066514 11.125 15 C11.64964844 15.88945313 12.17429688 16.77890625 12.71484375 17.6953125 C13.71909014 19.39871777 14.7176138 21.10551418 15.70947266 22.81616211 C16.70128556 24.49451369 17.75918152 26.13394697 18.84375 27.75390625 C21.12602254 32.18737486 20.4739314 37.15536792 20 42 C17.93810357 48.3002391 13.66941965 51.58578274 7.91796875 54.6328125 C3.35868466 56.52478898 -1.07365884 56.3317508 -5.9375 56.1875 C-7.24944336 56.16719727 -7.24944336 56.16719727 -8.58789062 56.14648438 C-10.72553086 56.11144109 -12.86284984 56.05764541 -15 56 C-15.52207031 55.04222656 -16.04414063 54.08445313 -16.58203125 53.09765625 C-21.24401862 44.63633694 -26.17083594 36.4416559 -31.54418945 28.41040039 C-35 23.20166932 -35 23.20166932 -35 21 C-33.09332653 19.66326535 -31.11847206 18.42353498 -29.12109375 17.2265625 C-28.51620621 16.86154633 -27.91131866 16.49653015 -27.2881012 16.12045288 C-25.3419416 14.9484202 -23.38982038 13.78673512 -21.4375 12.625 C-20.14739461 11.84960993 -18.8576761 11.07357577 -17.56835938 10.296875 C-11.74879001 6.7989758 -5.90311213 3.355394 0 0 Z " fill="#262626" transform="translate(219,104)"/>
<path d="M0 0 C4.9048562 3.05364063 7.44800801 7.12080503 10.25 12.0625 C10.88808594 13.03316406 10.88808594 13.03316406 11.5390625 14.0234375 C14.31512837 18.34805712 14.31512837 18.34805712 14.03198242 21.45410156 C13.15858579 24.36742332 11.95382884 26.49557591 10.30078125 29.046875 C9.69943359 29.98273438 9.09808594 30.91859375 8.47851562 31.8828125 C7.84623047 32.84960938 7.21394531 33.81640625 6.5625 34.8125 C5.94955078 35.76382813 5.33660156 36.71515625 4.70507812 37.6953125 C0.94212665 43.52130312 -2.88619543 49.30299118 -6.75 55.0625 C-13.56313806 51.52690978 -20.06069768 47.67321862 -26.5 43.5 C-27.56238892 42.81200317 -27.56238892 42.81200317 -28.64624023 42.11010742 C-33.09711514 39.20270206 -37.44347037 36.17966084 -41.75 33.0625 C-39.53744285 27.14277533 -36.25833887 21.95491619 -33 16.5625 C-32.3915625 15.52996094 -31.783125 14.49742188 -31.15625 13.43359375 C-24.12287392 1.78644319 -14.04076067 -6.87807533 0 0 Z " fill="#252625" transform="translate(127.75,47.9375)"/>
<path d="M0 0 C2 1 2 1 3.1875 3.375 C4 6 4 6 3 9 C0.9375 7.3125 0.9375 7.3125 -1 5 C-0.75 2.25 -0.75 2.25 0 0 Z " fill="#313131" transform="translate(109,133)"/>
</svg>
